<svg width="25" height="25" viewBox="0 0 25 25" fill="none" xmlns="http://www.w3.org/2000/svg">
<rect x="0.733398" y="0.0522461" width="24" height="24" rx="4" fill="#FF7EE5"/>
<path fill-rule="evenodd" clip-rule="evenodd" d="M16.7334 9.71891L18.0667 7.38558L16.7334 5.05225H14.0667L12.7334 7.38558L11.4001 5.05225H8.7334L7.40007 7.38558L8.7334 9.71891H6.06673L4.7334 12.0522L6.06673 14.3856H8.7334L7.40007 16.7189L8.7334 19.0522H11.4001L12.7334 16.7189L14.0667 19.0522H16.7334L18.0667 16.7189L16.7334 14.3856H19.4001L20.7334 12.0522L19.4001 9.71891H16.7334ZM15.4001 12.0522L16.7334 14.3856H14.0667L15.4001 12.0522ZM14.0667 9.71891L15.4001 12.0522L16.7334 9.71891H14.0667ZM11.4001 9.71891H14.0667L12.7334 7.38558L11.4001 9.71891ZM10.0667 12.0522L8.7334 9.71891H11.4001L10.0667 12.0522ZM11.4001 14.3856H8.7334L10.0667 12.0522L11.4001 14.3856ZM11.4001 14.3856L12.7334 16.7189L14.0667 14.3856H11.4001Z" fill="#171717"/>
</svg>
